<svg xmlns="http://www.w3.org/2000/svg" xmlns:xlink="http://www.w3.org/1999/xlink" version="1.1" x="0px" y="0px" viewBox="0 0 100 125" style="enable-background:new 0 0 100 100;" xml:space="preserve"><g><path d="M48,88.2h4c14.3,0,26-11.7,26-26c0-6.8-2.7-13.1-7-17.7V33c0-11.7-9.4-21.2-21-21.2S29,21.3,29,33v11.6   c-4.3,4.6-7,10.9-7,17.7C22,76.6,33.7,88.2,48,88.2z M50,17.8c8.3,0,15,6.8,15,15.2v6.8c-3.8-2.2-8.3-3.5-13-3.5h-4   c-4.7,0-9.2,1.3-13,3.5V33C35,24.6,41.7,17.8,50,17.8z M48,42.2h4c11,0,20,9,20,20s-9,20-20,20h-4c-11,0-20-9-20-20   S37,42.2,48,42.2z"/><rect x="47" y="62.2" width="6" height="12"/></g><text x="0" y="115" fill="#000000" font-size="5px" font-weight="bold" font-family="'Helvetica Neue', Helvetica, Arial-Unicode, Arial, Sans-serif">Created by Agni</text><text x="0" y="120" fill="#000000" font-size="5px" font-weight="bold" font-family="'Helvetica Neue', Helvetica, Arial-Unicode, Arial, Sans-serif">from the Noun Project</text></svg>