<svg xmlns="http://www.w3.org/2000/svg" xmlns:xlink="http://www.w3.org/1999/xlink" version="1.1" x="0px" y="0px" viewBox="0 0 100 125" style="enable-background:new 0 0 100 100;" xml:space="preserve"><g><path d="M28,87.8h44c3.9,0,7-3.1,7-7v-34c0-3.9-3.1-7-7-7v-5.3c0-12.2-9.9-22.2-22-22.2c-8.3,0-15.9,4.7-19.6,12.2L28.6,28l7.1,3.6   l1.8-3.6c2.4-4.8,7.2-7.8,12.5-7.8c7.7,0,14,6.4,14,14.2v5.3H28c-3.9,0-7,3.1-7,7v34C21,84.6,24.1,87.8,28,87.8z M29,47.8h42v32H29   V47.8z"/><rect x="46" y="59.8" width="8" height="14"/></g><text x="0" y="115" fill="#000000" font-size="5px" font-weight="bold" font-family="'Helvetica Neue', Helvetica, Arial-Unicode, Arial, Sans-serif">Created by Agni</text><text x="0" y="120" fill="#000000" font-size="5px" font-weight="bold" font-family="'Helvetica Neue', Helvetica, Arial-Unicode, Arial, Sans-serif">from the Noun Project</text></svg>